# xmcd
#
# Track frame offsets:
#	150
#	10602
#	21330
#	38392
#	49965
#	67245
#	77760
#	92670
#	112127
#	125600
#	139080
#	156007
#	177110
#	188890
#	198235
#	215072
#	229640
#
# Disc length: 3250 seconds
#
# Revision: 5
# Processed by: cddbd v1.5.1PL0 Copyright (c) Steve Scherf et al.
# Submitted via: EasyCDDAExtractor 8.2.1.1
#
DISCID=e80cb011
DTITLE=Various Artist - Blues And Soul Vol 2
DYEAR=1993
DGENRE=Blues
TTITLE0=Sam And Dave - Soul Sister Brown Sugar
TTITLE1=James Brown - Papa's Got A Brand New Bag (live)
TTITLE2=Percy Sledge - Warm And Tender Love
TTITLE3=The Tams - Hey Girl Don't Bother Me
TTITLE4=Brook Benton - Rainy Night in Georgia
TTITLE5=Martha Reeves - In The Midnight Hour
TTITLE6=Harold Melvyn - Satisfaction Guaranteed
TTITLE7=The Three Degrees - Dirty Ol' Man
TTITLE8=Ben E King - Spanish Harlem
TTITLE9=George McCrae - I Can't Leave You Alone
TTITLE10=The Originals - Please Mr Postman
TTITLE11=Fifth Dimension - Love Hangover
TTITLE12=Cupid's Inspiration - Yesterday Has Gone
TTITLE13=The Shirelees - Dedicated To The One I Love
TTITLE14=Etta James - Blowin' In The Wind
TTITLE15=BJ Thomas - Hooked On A Feeling
TTITLE16=Brooklyn Bridge - The Worst That Could Happen To Me
EXTD=Fat CD 409/1\n\n4 CD Set YEAR: 1993
EXTT0=
EXTT1=
EXTT2=
EXTT3=
EXTT4=
EXTT5=
EXTT6=
EXTT7=
EXTT8=
EXTT9=
EXTT10=
EXTT11=
EXTT12=
EXTT13=
EXTT14=
EXTT15=
EXTT16=
PLAYORDER=
